# xmcd
#
# Track frame offsets:
#	150
#	38026
#	73745
#	119380
#	151283
#	200252
#	231107
#
# Disc length: 3408 seconds
#
# Revision: 0
# Processed by: cddbd v1.5.2PL0 Copyright (c) Steve Scherf et al.
# Submitted via: audiograbber 1.83.01
#
DISCID=570d4e07
DTITLE=Grateful Dead - 92-06-29 Deer Creek Music Centre, Noblesville IN
DYEAR=1900
DGENRE=
TTITLE0=Feel Like A Stranger
TTITLE1=Althea
TTITLE2=Little Red Rooster
TTITLE3=So Many Roads
TTITLE4=Desolation Row
TTITLE5=Deal
TTITLE6=Box Of Rain
EXTD=
EXTT0=
EXTT1=
EXTT2=
EXTT3=
EXTT4=
EXTT5=
EXTT6=
PLAYORDER=
